<?xml version="1.0" encoding="utf-8"?>
<!-- Generator: Adobe Illustrator 15.0.0, SVG Export Plug-In . SVG Version: 6.00 Build 0)  -->
<!DOCTYPE svg PUBLIC "-//W3C//DTD SVG 1.1//EN" "http://www.w3.org/Graphics/SVG/1.1/DTD/svg11.dtd">
<svg version="1.1" id="Layer_1" xmlns="http://www.w3.org/2000/svg" xmlns:xlink="http://www.w3.org/1999/xlink" x="0px" y="0px"
	 width="296px" height="335px" viewBox="0 0 296 335" enable-background="new 0 0 296 335" xml:space="preserve">
<g>
	<g>
		<g>
			<path fill="#FFFFFF" stroke="#000000" stroke-miterlimit="10" d="M112.956,87.066h-4.879L76.722,42.212H53.686l32.765,45.735
				c-5.126,0.312-11.445,0.558-16.522,2.255c-3.334,1.115-6.225,2.836-8.717,5.013c-2.486,2.17-4.439,4.967-5.858,8.396
				c-1.407,3.413-2.112,7.552-2.112,12.395c0,11.354,3.543,19.375,10.625,24.051c7.083,4.677,17.211,7.021,30.377,7.021h39.5V42.212
				h-20.787L112.956,87.066L112.956,87.066z M112.956,130.684h-17.47c-2.324,0-4.782-0.167-7.36-0.506
				c-2.58-0.331-4.909-0.958-6.988-1.872c-2.079-0.917-3.787-2.209-5.112-3.878c-1.334-1.666-1.932-3.921-2.002-6.753
				c-0.147-6.371,1.655-9.914,5.741-12.006c3.719-1.899,8.738-2.504,14.722-2.504h18.469V130.684z"/>
		</g>
		<g>
			<g>
				<g>
					<path fill="#FFFFFF" stroke="#000000" stroke-miterlimit="10" d="M42.916,255.759c3.504,0,6.659,0.57,9.468,1.698
						c2.808,1.134,5.213,2.686,7.223,4.657c2.006,1.974,3.54,4.259,4.596,6.852c1.063,2.593,1.591,5.388,1.591,8.382
						c0,4.6-0.968,8.577-2.896,11.94c-1.926,3.362-5.069,5.917-9.433,7.671v0.221c2.112,0.579,3.861,1.471,5.249,2.67
						c1.385,1.2,2.515,2.618,3.39,4.258c0.874,1.633,1.512,3.438,1.916,5.398c0.397,1.971,0.675,3.932,0.82,5.893
						c0.075,1.238,0.141,2.694,0.215,4.367c0.078,1.68,0.204,3.387,0.387,5.129c0.184,1.748,0.471,3.4,0.874,4.967
						c0.404,1.568,1,2.891,1.807,3.982H50.984c-0.933-2.465-1.505-5.406-1.719-8.82c-0.213-3.412-0.537-6.684-0.968-9.801
						c-0.587-4.068-1.835-7.043-3.748-8.935c-1.91-1.883-5.03-2.833-9.356-2.833H17.91v30.389H0.781v-78.085H42.916L42.916,255.759z
						 M36.797,291.121c3.955,0,6.926-0.877,8.897-2.639c1.979-1.762,2.97-4.623,2.97-8.574c0-3.812-0.99-6.581-2.97-8.303
						c-1.971-1.725-4.942-2.588-8.897-2.588H17.91v22.104H36.797L36.797,291.121z"/>
					<path fill="#FFFFFF" stroke="#000000" stroke-miterlimit="10" d="M73.429,285.701c1.612-2.408,3.662-4.35,6.148-5.812
						c2.485-1.457,5.282-2.502,8.392-3.121c3.104-0.627,6.237-0.938,9.379-0.938c2.856,0,5.747,0.207,8.668,0.607
						c2.922,0.4,5.594,1.187,8.01,2.348c2.412,1.167,4.388,2.785,5.922,4.865c1.538,2.078,2.309,4.832,2.309,8.259v29.403
						c0,2.557,0.142,5,0.436,7.33c0.287,2.334,0.799,4.084,1.532,5.245l-15.619-0.045c-0.287-0.866-0.525-1.756-0.703-2.666
						c-0.183-0.903-0.311-1.825-0.381-2.772c-2.49,2.562-5.426,4.354-8.8,5.373c-3.372,1.026-6.818,1.543-10.334,1.543
						c-2.718,0-5.242-0.336-7.59-0.987c-2.35-0.649-4.397-1.679-6.158-3.063c-1.761-1.387-3.133-3.143-4.119-5.259
						c-0.99-2.122-1.487-4.639-1.487-7.555c0-3.213,0.564-5.858,1.697-7.942c1.135-2.084,2.597-3.74,4.393-4.986
						c1.791-1.239,3.839-2.166,6.146-2.785c2.303-0.627,4.629-1.118,6.97-1.479c2.342-0.367,4.645-0.658,6.91-0.878
						c2.268-0.221,4.284-0.55,6.039-0.989c1.754-0.438,3.148-1.074,4.174-1.914c1.023-0.838,1.494-2.062,1.425-3.672
						c0-1.679-0.283-3.006-0.834-3.992c-0.552-0.988-1.293-1.756-2.213-2.303c-0.928-0.545-1.999-0.912-3.219-1.098
						c-1.219-0.182-2.531-0.271-3.935-0.271c-3.111,0-5.548,0.672-7.323,1.994c-1.771,1.334-2.806,3.555-3.1,6.664h-15.47
						C70.911,291.146,71.819,288.114,73.429,285.701z M104.3,307.553c-0.991,0.329-2.062,0.606-3.2,0.826
						c-1.14,0.211-2.337,0.398-3.584,0.541c-1.248,0.15-2.5,0.329-3.749,0.548c-1.181,0.22-2.336,0.513-3.473,0.88
						c-1.14,0.366-2.136,0.856-2.985,1.477c-0.845,0.619-1.522,1.4-2.035,2.348c-0.52,0.957-0.771,2.154-0.771,3.613
						c0,1.389,0.252,2.555,0.771,3.499c0.513,0.952,1.213,1.704,2.093,2.243c0.881,0.55,1.914,0.93,3.092,1.148
						c1.174,0.219,2.389,0.328,3.637,0.328c3.091,0,5.481-0.51,7.171-1.529c1.694-1.023,2.943-2.244,3.752-3.664
						c0.807-1.427,1.307-2.863,1.491-4.321c0.185-1.46,0.276-2.63,0.276-3.505v-5.791C106.125,306.773,105.297,307.23,104.3,307.553
						z"/>
					<path fill="#FFFFFF" stroke="#000000" stroke-miterlimit="10" d="M143.296,255.759v28.375h0.185
						c1.906-2.937,4.483-5.083,7.748-6.444c3.266-1.355,6.656-2.039,10.168-2.039c2.857,0,5.679,0.588,8.463,1.754
						c2.785,1.175,5.295,2.969,7.531,5.377c2.234,2.41,4.047,5.5,5.441,9.27c1.395,3.768,2.087,8.244,2.087,13.432
						c0,5.193-0.692,9.672-2.085,13.438c-1.387,3.763-3.199,6.86-5.426,9.272s-4.73,4.207-7.506,5.375
						c-2.773,1.166-5.588,1.754-8.437,1.754c-4.167,0-7.89-0.657-11.178-1.975c-3.286-1.312-5.772-3.535-7.451-6.679h-0.278v7.222
						h-14.732V255.76L143.296,255.759L143.296,255.759z M168.673,298.729c-0.512-2.195-1.325-4.131-2.421-5.809
						c-1.107-1.684-2.488-3.02-4.141-4.007c-1.657-0.983-3.66-1.478-6.016-1.478c-2.283,0-4.271,0.492-5.962,1.478
						c-1.693,0.987-3.09,2.323-4.19,4.007c-1.104,1.678-1.916,3.612-2.428,5.809c-0.517,2.192-0.771,4.489-0.771,6.901
						c0,2.336,0.254,4.606,0.771,6.8c0.513,2.189,1.325,4.131,2.428,5.81c1.1,1.681,2.497,3.016,4.19,3.997
						c1.691,0.988,3.679,1.479,5.962,1.479c2.354,0,4.357-0.49,6.016-1.479c1.652-0.981,3.033-2.316,4.141-3.997
						c1.096-1.679,1.909-3.619,2.421-5.81c0.521-2.193,0.777-4.464,0.777-6.8C169.45,303.218,169.193,300.921,168.673,298.729z"/>
					<path fill="#FFFFFF" stroke="#000000" stroke-miterlimit="10" d="M204.709,255.759v28.375h0.188
						c1.902-2.937,4.482-5.083,7.744-6.444c3.267-1.355,6.654-2.039,10.168-2.039c2.858,0,5.678,0.588,8.461,1.754
						c2.787,1.175,5.297,2.969,7.535,5.377c2.233,2.41,4.047,5.5,5.44,9.27c1.392,3.768,2.086,8.244,2.086,13.432
						c0,5.193-0.694,9.672-2.08,13.438c-1.388,3.763-3.2,6.86-5.431,9.272c-2.225,2.412-4.729,4.207-7.506,5.375
						c-2.771,1.166-5.586,1.754-8.437,1.754c-4.164,0-7.889-0.657-11.176-1.975c-3.284-1.312-5.771-3.535-7.451-6.679h-0.276v7.222
						h-14.733V255.76L204.709,255.759L204.709,255.759z M230.086,298.729c-0.513-2.195-1.324-4.131-2.422-5.809
						c-1.107-1.684-2.488-3.02-4.139-4.007c-1.658-0.983-3.658-1.478-6.015-1.478c-2.286,0-4.271,0.492-5.965,1.478
						c-1.688,0.987-3.09,2.323-4.187,4.007c-1.106,1.678-1.92,3.612-2.43,5.809c-0.52,2.192-0.772,4.489-0.772,6.901
						c0,2.336,0.254,4.606,0.772,6.8c0.51,2.189,1.322,4.131,2.43,5.81c1.097,1.681,2.496,3.016,4.187,3.997
						c1.692,0.988,3.679,1.479,5.965,1.479c2.355,0,4.355-0.49,6.015-1.479c1.649-0.981,3.031-2.316,4.139-3.997
						c1.098-1.679,1.909-3.619,2.422-5.81c0.518-2.193,0.777-4.464,0.777-6.8C230.863,303.218,230.604,300.921,230.086,298.729z"/>
					<path fill="#FFFFFF" stroke="#000000" stroke-miterlimit="10" d="M249.682,268.469v-12.71h15.469v12.71H249.682z
						 M265.15,277.29v56.554h-15.469V277.29H265.15z"/>
					<path fill="#FFFFFF" stroke="#000000" stroke-miterlimit="10" d="M296.87,277.309v10.311h-11.38v28.05
						c0,2.633,0.438,4.381,1.312,5.258c0.878,0.88,2.626,1.317,5.255,1.317c0.875,0,1.709-0.032,2.517-0.109
						c0.8-0.07,1.563-0.182,2.298-0.328v12.038c-1.314,0.22-2.773,0.366-4.383,0.443c-1.604,0.071-3.17,0.108-4.702,0.108
						c-2.396,0-4.672-0.166-6.813-0.488c-2.144-0.33-4.033-0.967-5.666-1.916c-1.636-0.948-2.927-2.305-3.871-4.061
						c-0.941-1.753-1.412-4.05-1.412-6.9v-33.412h-0.017v-10.311h0.017v-21.58h15.469v21.58H296.87L296.87,277.309z"/>
				</g>
			</g>
		</g>
	</g>
	<g>
		<g>
			<path fill="#FFFFFF" stroke="#000000" stroke-miterlimit="10" d="M96.133,0c-52.467,0-95,42.173-95,94.193
				c0,52.022,42.533,94.193,95,94.193c52.469,0,95-42.171,95-94.193C191.134,42.173,148.602,0,96.133,0z M96.133,168.195
				c-40.87,0-74.001-33.133-74.001-74.002c0-40.869,33.131-74.002,74.001-74.002c40.87,0,74.001,33.133,74.001,74.002
				C170.134,135.062,137.003,168.195,96.133,168.195z"/>
		</g>
	</g>
</g>
</svg>
