<?xml version="1.0" encoding="utf-8"?>
<!-- Generator: Adobe Illustrator 15.0.0, SVG Export Plug-In . SVG Version: 6.00 Build 0)  -->
<!DOCTYPE svg PUBLIC "-//W3C//DTD SVG 1.1//EN" "http://www.w3.org/Graphics/SVG/1.1/DTD/svg11.dtd">
<svg version="1.1" id="Layer_1" xmlns="http://www.w3.org/2000/svg" xmlns:xlink="http://www.w3.org/1999/xlink" x="0px" y="0px"
	 width="296px" height="335px" viewBox="0 0 296 335" enable-background="new 0 0 296 335" xml:space="preserve">
<g>
	<g>
		<g>
			<path d="M112.956,87.066h-4.879L76.722,42.212H53.686l32.765,45.735c-5.126,0.313-11.445,0.558-16.522,2.255
				c-3.334,1.115-6.225,2.836-8.717,5.013c-2.486,2.17-4.439,4.967-5.858,8.396c-1.407,3.413-2.112,7.552-2.112,12.395
				c0,11.354,3.543,19.375,10.625,24.051c7.083,4.677,17.211,7.021,30.377,7.021h39.5V42.212h-20.787V87.066z M112.956,130.684
				h-17.47c-2.324,0-4.782-0.167-7.36-0.506c-2.58-0.331-4.909-0.958-6.988-1.872c-2.079-0.917-3.787-2.209-5.112-3.878
				c-1.334-1.666-1.932-3.921-2.002-6.753c-0.147-6.371,1.655-9.914,5.741-12.006c3.719-1.899,8.738-2.504,14.722-2.504h18.469
				V130.684z"/>
		</g>
		<g>
			<g>
				<g>
					<path d="M42.916,255.759c3.504,0,6.659,0.57,9.468,1.698c2.808,1.134,5.213,2.685,7.223,4.657
						c2.006,1.974,3.54,4.259,4.596,6.852c1.063,2.592,1.591,5.388,1.591,8.381c0,4.6-0.968,8.578-2.896,11.941
						c-1.926,3.363-5.069,5.917-9.433,7.671v0.22c2.112,0.58,3.861,1.471,5.249,2.67c1.385,1.201,2.515,2.619,3.39,4.258
						c0.874,1.633,1.512,3.439,1.916,5.399c0.397,1.97,0.675,3.932,0.82,5.892c0.075,1.239,0.141,2.695,0.215,4.368
						c0.078,1.679,0.204,3.387,0.387,5.129c0.184,1.748,0.471,3.4,0.874,4.966c0.404,1.569,1,2.891,1.807,3.983H50.984
						c-0.933-2.465-1.505-5.406-1.719-8.82c-0.213-3.412-0.537-6.684-0.968-9.801c-0.587-4.069-1.835-7.044-3.748-8.935
						c-1.91-1.883-5.03-2.833-9.356-2.833H17.91v30.389H0.781v-78.085H42.916z M36.797,291.121c3.955,0,6.926-0.877,8.897-2.639
						c1.979-1.761,2.97-4.622,2.97-8.574c0-3.813-0.99-6.581-2.97-8.303c-1.971-1.724-4.942-2.588-8.897-2.588H17.91v22.104H36.797z
						"/>
					<path d="M73.429,285.701c1.612-2.408,3.662-4.349,6.148-5.812c2.485-1.457,5.282-2.502,8.392-3.121
						c3.104-0.628,6.237-0.938,9.379-0.938c2.856,0,5.747,0.207,8.668,0.608c2.922,0.4,5.594,1.186,8.01,2.347
						c2.412,1.167,4.388,2.786,5.922,4.866c1.538,2.077,2.309,4.831,2.309,8.258v29.403c0,2.557,0.142,5.001,0.436,7.33
						c0.287,2.335,0.799,4.084,1.532,5.246l-15.619-0.045c-0.287-0.866-0.525-1.756-0.703-2.666
						c-0.183-0.903-0.311-1.825-0.381-2.772c-2.49,2.561-5.426,4.353-8.8,5.372c-3.372,1.027-6.818,1.543-10.334,1.543
						c-2.718,0-5.242-0.335-7.59-0.987c-2.35-0.65-4.397-1.678-6.158-3.063c-1.761-1.387-3.133-3.143-4.119-5.259
						c-0.99-2.122-1.487-4.639-1.487-7.555c0-3.213,0.564-5.859,1.697-7.943c1.135-2.083,2.597-3.739,4.393-4.985
						c1.791-1.24,3.839-2.167,6.146-2.786c2.303-0.627,4.629-1.118,6.97-1.478c2.342-0.368,4.645-0.658,6.91-0.878
						c2.268-0.221,4.284-0.55,6.039-0.989c1.754-0.438,3.148-1.075,4.174-1.915c1.023-0.838,1.494-2.062,1.425-3.672
						c0-1.678-0.283-3.005-0.834-3.991c-0.552-0.989-1.293-1.757-2.213-2.303c-0.928-0.545-1.999-0.913-3.219-1.098
						c-1.219-0.182-2.531-0.271-3.935-0.271c-3.111,0-5.548,0.672-7.323,1.993c-1.771,1.335-2.806,3.555-3.1,6.665h-15.47
						C70.911,291.146,71.819,288.114,73.429,285.701z M104.3,307.553c-0.991,0.329-2.062,0.606-3.2,0.826
						c-1.14,0.211-2.337,0.399-3.584,0.541c-1.248,0.15-2.5,0.329-3.749,0.548c-1.181,0.22-2.336,0.512-3.473,0.88
						c-1.14,0.366-2.136,0.856-2.985,1.476c-0.845,0.62-1.522,1.4-2.035,2.348c-0.52,0.957-0.771,2.154-0.771,3.613
						c0,1.389,0.252,2.555,0.771,3.499c0.513,0.952,1.213,1.704,2.093,2.244c0.881,0.549,1.914,0.929,3.092,1.148
						c1.174,0.219,2.389,0.328,3.637,0.328c3.091,0,5.481-0.51,7.171-1.53c1.694-1.023,2.943-2.244,3.752-3.663
						c0.807-1.427,1.307-2.864,1.491-4.322c0.185-1.459,0.276-2.629,0.276-3.504v-5.792
						C106.125,306.773,105.297,307.23,104.3,307.553z"/>
					<path d="M143.296,255.759v28.375h0.185c1.906-2.937,4.483-5.083,7.748-6.445c3.265-1.355,6.656-2.038,10.168-2.038
						c2.857,0,5.678,0.587,8.462,1.754c2.785,1.174,5.296,2.968,7.531,5.376c2.235,2.411,4.048,5.5,5.442,9.27
						c1.395,3.768,2.087,8.244,2.087,13.432c0,5.193-0.692,9.672-2.085,13.438c-1.387,3.763-3.199,6.86-5.426,9.272
						c-2.226,2.412-4.731,4.207-7.506,5.375c-2.773,1.167-5.588,1.754-8.436,1.754c-4.167,0-7.89-0.657-11.178-1.974
						c-3.286-1.312-5.772-3.536-7.451-6.679h-0.278v7.221h-14.732v-78.13H143.296z M168.673,298.728
						c-0.512-2.195-1.325-4.13-2.421-5.808c-1.107-1.684-2.488-3.019-4.14-4.007c-1.658-0.984-3.661-1.477-6.017-1.477
						c-2.283,0-4.27,0.492-5.961,1.477c-1.693,0.988-3.09,2.323-4.19,4.007c-1.104,1.678-1.916,3.612-2.428,5.808
						c-0.517,2.193-0.771,4.49-0.771,6.902c0,2.336,0.254,4.606,0.771,6.799c0.513,2.19,1.325,4.132,2.428,5.81
						c1.1,1.681,2.497,3.016,4.19,3.997c1.691,0.988,3.678,1.479,5.961,1.479c2.355,0,4.358-0.491,6.017-1.479
						c1.651-0.981,3.032-2.316,4.14-3.997c1.096-1.678,1.909-3.619,2.421-5.81c0.521-2.192,0.777-4.463,0.777-6.799
						C169.45,303.218,169.193,300.921,168.673,298.728z"/>
					<path d="M204.709,255.759v28.375h0.188c1.902-2.937,4.482-5.083,7.744-6.445c3.266-1.355,6.654-2.038,10.168-2.038
						c2.858,0,5.678,0.587,8.461,1.754c2.787,1.174,5.297,2.968,7.535,5.376c2.233,2.411,4.047,5.5,5.44,9.27
						c1.392,3.768,2.086,8.244,2.086,13.432c0,5.193-0.694,9.672-2.08,13.438c-1.388,3.763-3.2,6.86-5.431,9.272
						c-2.225,2.412-4.729,4.207-7.506,5.375c-2.771,1.167-5.586,1.754-8.436,1.754c-4.164,0-7.889-0.657-11.176-1.974
						c-3.284-1.312-5.771-3.536-7.451-6.679h-0.277v7.221h-14.733v-78.13H204.709z M230.086,298.728
						c-0.513-2.195-1.325-4.13-2.422-5.808c-1.107-1.684-2.488-3.019-4.139-4.007c-1.658-0.984-3.658-1.477-6.014-1.477
						c-2.287,0-4.271,0.492-5.965,1.477c-1.689,0.988-3.09,2.323-4.186,4.007c-1.107,1.678-1.92,3.612-2.431,5.808
						c-0.519,2.193-0.772,4.49-0.772,6.902c0,2.336,0.254,4.606,0.772,6.799c0.511,2.19,1.323,4.132,2.431,5.81
						c1.096,1.681,2.496,3.016,4.186,3.997c1.693,0.988,3.678,1.479,5.965,1.479c2.355,0,4.355-0.491,6.014-1.479
						c1.65-0.981,3.031-2.316,4.139-3.997c1.097-1.678,1.909-3.619,2.422-5.81c0.517-2.192,0.777-4.463,0.777-6.799
						C230.863,303.218,230.603,300.921,230.086,298.728z"/>
					<path d="M249.682,268.469v-12.71h15.469v12.71H249.682z M265.15,277.29v56.554h-15.469V277.29H265.15z"/>
					<path d="M296.87,277.309v10.31h-11.38v28.05c0,2.633,0.438,4.381,1.312,5.258c0.878,0.879,2.626,1.317,5.254,1.317
						c0.876,0,1.71-0.032,2.517-0.109c0.8-0.071,1.564-0.182,2.298-0.329v12.039c-1.315,0.219-2.774,0.366-4.383,0.443
						c-1.604,0.071-3.17,0.109-4.702,0.109c-2.396,0-4.672-0.166-6.813-0.489c-2.144-0.33-4.034-0.967-5.667-1.916
						c-1.635-0.948-2.926-2.304-3.87-4.06c-0.942-1.753-1.413-4.05-1.413-6.901v-33.412h-0.016v-10.31h0.016v-21.581h15.469v21.581
						H296.87z"/>
				</g>
			</g>
		</g>
	</g>
	<g>
		<g>
			<path d="M96.133,0c-52.467,0-95,42.173-95,94.193c0,52.022,42.533,94.193,95,94.193c52.468,0,95-42.171,95-94.193
				C191.134,42.173,148.601,0,96.133,0z M96.133,168.195c-40.87,0-74.001-33.133-74.001-74.002s33.131-74.002,74.001-74.002
				s74.001,33.133,74.001,74.002S137.003,168.195,96.133,168.195z"/>
		</g>
	</g>
</g>
</svg>
